<?xml version="1.0" encoding="utf-8" standalone="no"?>
<!DOCTYPE svg PUBLIC "-//W3C//DTD SVG 1.1//EN"
  "http://www.w3.org/Graphics/SVG/1.1/DTD/svg11.dtd">
<!-- Created with matplotlib (https://matplotlib.org/) -->
<svg height="345.6pt" version="1.1" viewBox="0 0 460.8 345.6" width="460.8pt" xmlns="http://www.w3.org/2000/svg" xmlns:xlink="http://www.w3.org/1999/xlink">
 <metadata>
  <rdf:RDF xmlns:cc="http://creativecommons.org/ns#" xmlns:dc="http://purl.org/dc/elements/1.1/" xmlns:rdf="http://www.w3.org/1999/02/22-rdf-syntax-ns#">
   <cc:Work>
    <dc:type rdf:resource="http://purl.org/dc/dcmitype/StillImage"/>
    <dc:date>2024-06-29T09:03:23.075169</dc:date>
    <dc:format>image/svg+xml</dc:format>
    <dc:creator>
     <cc:Agent>
      <dc:title>Matplotlib v3.3.4, https://matplotlib.org/</dc:title>
     </cc:Agent>
    </dc:creator>
   </cc:Work>
  </rdf:RDF>
 </metadata>
 <defs>
  <style type="text/css">*{stroke-linecap:butt;stroke-linejoin:round;}</style>
 </defs>
 <g id="figure_1">
  <g id="patch_1">
   <path d="M 0 345.6 
L 460.8 345.6 
L 460.8 0 
L 0 0 
z
" style="fill:#ffffff;"/>
  </g>
  <g id="axes_1">
   <g id="patch_2">
    <path d="M 57.6 307.584 
L 414.72 307.584 
L 414.72 41.472 
L 57.6 41.472 
z
" style="fill:#ffffff;"/>
   </g>
   <g id="PathCollection_1">
    <defs>
     <path d="M 0 3 
C 0.795609 3 1.55874 2.683901 2.12132 2.12132 
C 2.683901 1.55874 3 0.795609 3 0 
C 3 -0.795609 2.683901 -1.55874 2.12132 -2.12132 
C 1.55874 -2.683901 0.795609 -3 0 -3 
C -0.795609 -3 -1.55874 -2.683901 -2.12132 -2.12132 
C -2.683901 -1.55874 -3 -0.795609 -3 0 
C -3 0.795609 -2.683901 1.55874 -2.12132 2.12132 
C -1.55874 2.683901 -0.795609 3 0 3 
z
" id="m717bc7d6ce" style="stroke:#ff0000;"/>
    </defs>
    <g clip-path="url(#p8107e25a19)">
     <use style="fill:#ff0000;stroke:#ff0000;" x="100.887273" xlink:href="#m717bc7d6ce" y="107.080515"/>
    </g>
   </g>
   <g id="PathCollection_2">
    <defs>
     <path d="M 0 3 
C 0.795609 3 1.55874 2.683901 2.12132 2.12132 
C 2.683901 1.55874 3 0.795609 3 0 
C 3 -0.795609 2.683901 -1.55874 2.12132 -2.12132 
C 1.55874 -2.683901 0.795609 -3 0 -3 
C -0.795609 -3 -1.55874 -2.683901 -2.12132 -2.12132 
C -2.683901 -1.55874 -3 -0.795609 -3 0 
C -3 0.795609 -2.683901 1.55874 -2.12132 2.12132 
C -1.55874 2.683901 -0.795609 3 0 3 
z
" id="mb1ce1a0b05" style="stroke:#00ffff;"/>
    </defs>
    <g clip-path="url(#p8107e25a19)">
     <use style="fill:#00ffff;stroke:#00ffff;" x="100.887273" xlink:href="#mb1ce1a0b05" y="241.975485"/>
    </g>
   </g>
   <g id="PathCollection_3">
    <defs>
     <path d="M 0 3 
C 0.795609 3 1.55874 2.683901 2.12132 2.12132 
C 2.683901 1.55874 3 0.795609 3 0 
C 3 -0.795609 2.683901 -1.55874 2.12132 -2.12132 
C 1.55874 -2.683901 0.795609 -3 0 -3 
C -0.795609 -3 -1.55874 -2.683901 -2.12132 -2.12132 
C -2.683901 -1.55874 -3 -0.795609 -3 0 
C -3 0.795609 -2.683901 1.55874 -2.12132 2.12132 
C -1.55874 2.683901 -0.795609 3 0 3 
z
" id="m741b2c45fb" style="stroke:#ffc0cb;"/>
    </defs>
    <g clip-path="url(#p8107e25a19)">
     <use style="fill:#ffc0cb;stroke:#ffc0cb;" x="371.432727" xlink:href="#m741b2c45fb" y="280.022572"/>
    </g>
   </g>
   <g id="PathCollection_4">
    <defs>
     <path d="M 0 3 
C 0.795609 3 1.55874 2.683901 2.12132 2.12132 
C 2.683901 1.55874 3 0.795609 3 0 
C 3 -0.795609 2.683901 -1.55874 2.12132 -2.12132 
C 1.55874 -2.683901 0.795609 -3 0 -3 
C -0.795609 -3 -1.55874 -2.683901 -2.12132 -2.12132 
C -2.683901 -1.55874 -3 -0.795609 -3 0 
C -3 0.795609 -2.683901 1.55874 -2.12132 2.12132 
C -1.55874 2.683901 -0.795609 3 0 3 
z
" id="m12bc841a9d" style="stroke:#ee82ee;"/>
    </defs>
    <g clip-path="url(#p8107e25a19)">
     <use style="fill:#ee82ee;stroke:#ee82ee;" x="371.432727" xlink:href="#m12bc841a9d" y="69.033428"/>
    </g>
   </g>
   <g id="matplotlib.axis_1">
    <g id="xtick_1"/>
    <g id="xtick_2"/>
    <g id="xtick_3"/>
    <g id="xtick_4"/>
    <g id="xtick_5"/>
    <g id="xtick_6"/>
    <g id="xtick_7"/>
    <g id="text_1">
     <!-- Distance of anchor and generated sample -->
     <g transform="translate(130.854531 319.182437)scale(0.1 -0.1)">
      <defs>
       <path d="M 19.671875 64.796875 
L 19.671875 8.109375 
L 31.59375 8.109375 
Q 46.6875 8.109375 53.6875 14.9375 
Q 60.6875 21.78125 60.6875 36.53125 
Q 60.6875 51.171875 53.6875 57.984375 
Q 46.6875 64.796875 31.59375 64.796875 
z
M 9.8125 72.90625 
L 30.078125 72.90625 
Q 51.265625 72.90625 61.171875 64.09375 
Q 71.09375 55.28125 71.09375 36.53125 
Q 71.09375 17.671875 61.125 8.828125 
Q 51.171875 0 30.078125 0 
L 9.8125 0 
z
" id="DejaVuSans-68"/>
       <path d="M 9.421875 54.6875 
L 18.40625 54.6875 
L 18.40625 0 
L 9.421875 0 
z
M 9.421875 75.984375 
L 18.40625 75.984375 
L 18.40625 64.59375 
L 9.421875 64.59375 
z
" id="DejaVuSans-105"/>
       <path d="M 44.28125 53.078125 
L 44.28125 44.578125 
Q 40.484375 46.53125 36.375 47.5 
Q 32.28125 48.484375 27.875 48.484375 
Q 21.1875 48.484375 17.84375 46.4375 
Q 14.5 44.390625 14.5 40.28125 
Q 14.5 37.15625 16.890625 35.375 
Q 19.28125 33.59375 26.515625 31.984375 
L 29.59375 31.296875 
Q 39.15625 29.25 43.1875 25.515625 
Q 47.21875 21.78125 47.21875 15.09375 
Q 47.21875 7.46875 41.1875 3.015625 
Q 35.15625 -1.421875 24.609375 -1.421875 
Q 20.21875 -1.421875 15.453125 -0.5625 
Q 10.6875 0.296875 5.421875 2 
L 5.421875 11.28125 
Q 10.40625 8.6875 15.234375 7.390625 
Q 20.0625 6.109375 24.8125 6.109375 
Q 31.15625 6.109375 34.5625 8.28125 
Q 37.984375 10.453125 37.984375 14.40625 
Q 37.984375 18.0625 35.515625 20.015625 
Q 33.0625 21.96875 24.703125 23.78125 
L 21.578125 24.515625 
Q 13.234375 26.265625 9.515625 29.90625 
Q 5.8125 33.546875 5.8125 39.890625 
Q 5.8125 47.609375 11.28125 51.796875 
Q 16.75 56 26.8125 56 
Q 31.78125 56 36.171875 55.265625 
Q 40.578125 54.546875 44.28125 53.078125 
z
" id="DejaVuSans-115"/>
       <path d="M 18.3125 70.21875 
L 18.3125 54.6875 
L 36.8125 54.6875 
L 36.8125 47.703125 
L 18.3125 47.703125 
L 18.3125 18.015625 
Q 18.3125 11.328125 20.140625 9.421875 
Q 21.96875 7.515625 27.59375 7.515625 
L 36.8125 7.515625 
L 36.8125 0 
L 27.59375 0 
Q 17.1875 0 13.234375 3.875 
Q 9.28125 7.765625 9.28125 18.015625 
L 9.28125 47.703125 
L 2.6875 47.703125 
L 2.6875 54.6875 
L 9.28125 54.6875 
L 9.28125 70.21875 
z
" id="DejaVuSans-116"/>
       <path d="M 34.28125 27.484375 
Q 23.390625 27.484375 19.1875 25 
Q 14.984375 22.515625 14.984375 16.5 
Q 14.984375 11.71875 18.140625 8.90625 
Q 21.296875 6.109375 26.703125 6.109375 
Q 34.1875 6.109375 38.703125 11.40625 
Q 43.21875 16.703125 43.21875 25.484375 
L 43.21875 27.484375 
z
M 52.203125 31.203125 
L 52.203125 0 
L 43.21875 0 
L 43.21875 8.296875 
Q 40.140625 3.328125 35.546875 0.953125 
Q 30.953125 -1.421875 24.3125 -1.421875 
Q 15.921875 -1.421875 10.953125 3.296875 
Q 6 8.015625 6 15.921875 
Q 6 25.140625 12.171875 29.828125 
Q 18.359375 34.515625 30.609375 34.515625 
L 43.21875 34.515625 
L 43.21875 35.40625 
Q 43.21875 41.609375 39.140625 45 
Q 35.0625 48.390625 27.6875 48.390625 
Q 23 48.390625 18.546875 47.265625 
Q 14.109375 46.140625 10.015625 43.890625 
L 10.015625 52.203125 
Q 14.9375 54.109375 19.578125 55.046875 
Q 24.21875 56 28.609375 56 
Q 40.484375 56 46.34375 49.84375 
Q 52.203125 43.703125 52.203125 31.203125 
z
" id="DejaVuSans-97"/>
       <path d="M 54.890625 33.015625 
L 54.890625 0 
L 45.90625 0 
L 45.90625 32.71875 
Q 45.90625 40.484375 42.875 44.328125 
Q 39.84375 48.1875 33.796875 48.1875 
Q 26.515625 48.1875 22.3125 43.546875 
Q 18.109375 38.921875 18.109375 30.90625 
L 18.109375 0 
L 9.078125 0 
L 9.078125 54.6875 
L 18.109375 54.6875 
L 18.109375 46.1875 
Q 21.34375 51.125 25.703125 53.5625 
Q 30.078125 56 35.796875 56 
Q 45.21875 56 50.046875 50.171875 
Q 54.890625 44.34375 54.890625 33.015625 
z
" id="DejaVuSans-110"/>
       <path d="M 48.78125 52.59375 
L 48.78125 44.1875 
Q 44.96875 46.296875 41.140625 47.34375 
Q 37.3125 48.390625 33.40625 48.390625 
Q 24.65625 48.390625 19.8125 42.84375 
Q 14.984375 37.3125 14.984375 27.296875 
Q 14.984375 17.28125 19.8125 11.734375 
Q 24.65625 6.203125 33.40625 6.203125 
Q 37.3125 6.203125 41.140625 7.25 
Q 44.96875 8.296875 48.78125 10.40625 
L 48.78125 2.09375 
Q 45.015625 0.34375 40.984375 -0.53125 
Q 36.96875 -1.421875 32.421875 -1.421875 
Q 20.0625 -1.421875 12.78125 6.34375 
Q 5.515625 14.109375 5.515625 27.296875 
Q 5.515625 40.671875 12.859375 48.328125 
Q 20.21875 56 33.015625 56 
Q 37.15625 56 41.109375 55.140625 
Q 45.0625 54.296875 48.78125 52.59375 
z
" id="DejaVuSans-99"/>
       <path d="M 56.203125 29.59375 
L 56.203125 25.203125 
L 14.890625 25.203125 
Q 15.484375 15.921875 20.484375 11.0625 
Q 25.484375 6.203125 34.421875 6.203125 
Q 39.59375 6.203125 44.453125 7.46875 
Q 49.3125 8.734375 54.109375 11.28125 
L 54.109375 2.78125 
Q 49.265625 0.734375 44.1875 -0.34375 
Q 39.109375 -1.421875 33.890625 -1.421875 
Q 20.796875 -1.421875 13.15625 6.1875 
Q 5.515625 13.8125 5.515625 26.8125 
Q 5.515625 40.234375 12.765625 48.109375 
Q 20.015625 56 32.328125 56 
Q 43.359375 56 49.78125 48.890625 
Q 56.203125 41.796875 56.203125 29.59375 
z
M 47.21875 32.234375 
Q 47.125 39.59375 43.09375 43.984375 
Q 39.0625 48.390625 32.421875 48.390625 
Q 24.90625 48.390625 20.390625 44.140625 
Q 15.875 39.890625 15.1875 32.171875 
z
" id="DejaVuSans-101"/>
       <path id="DejaVuSans-32"/>
       <path d="M 30.609375 48.390625 
Q 23.390625 48.390625 19.1875 42.75 
Q 14.984375 37.109375 14.984375 27.296875 
Q 14.984375 17.484375 19.15625 11.84375 
Q 23.34375 6.203125 30.609375 6.203125 
Q 37.796875 6.203125 41.984375 11.859375 
Q 46.1875 17.53125 46.1875 27.296875 
Q 46.1875 37.015625 41.984375 42.703125 
Q 37.796875 48.390625 30.609375 48.390625 
z
M 30.609375 56 
Q 42.328125 56 49.015625 48.375 
Q 55.71875 40.765625 55.71875 27.296875 
Q 55.71875 13.875 49.015625 6.21875 
Q 42.328125 -1.421875 30.609375 -1.421875 
Q 18.84375 -1.421875 12.171875 6.21875 
Q 5.515625 13.875 5.515625 27.296875 
Q 5.515625 40.765625 12.171875 48.375 
Q 18.84375 56 30.609375 56 
z
" id="DejaVuSans-111"/>
       <path d="M 37.109375 75.984375 
L 37.109375 68.5 
L 28.515625 68.5 
Q 23.6875 68.5 21.796875 66.546875 
Q 19.921875 64.59375 19.921875 59.515625 
L 19.921875 54.6875 
L 34.71875 54.6875 
L 34.71875 47.703125 
L 19.921875 47.703125 
L 19.921875 0 
L 10.890625 0 
L 10.890625 47.703125 
L 2.296875 47.703125 
L 2.296875 54.6875 
L 10.890625 54.6875 
L 10.890625 58.5 
Q 10.890625 67.625 15.140625 71.796875 
Q 19.390625 75.984375 28.609375 75.984375 
z
" id="DejaVuSans-102"/>
       <path d="M 54.890625 33.015625 
L 54.890625 0 
L 45.90625 0 
L 45.90625 32.71875 
Q 45.90625 40.484375 42.875 44.328125 
Q 39.84375 48.1875 33.796875 48.1875 
Q 26.515625 48.1875 22.3125 43.546875 
Q 18.109375 38.921875 18.109375 30.90625 
L 18.109375 0 
L 9.078125 0 
L 9.078125 75.984375 
L 18.109375 75.984375 
L 18.109375 46.1875 
Q 21.34375 51.125 25.703125 53.5625 
Q 30.078125 56 35.796875 56 
Q 45.21875 56 50.046875 50.171875 
Q 54.890625 44.34375 54.890625 33.015625 
z
" id="DejaVuSans-104"/>
       <path d="M 41.109375 46.296875 
Q 39.59375 47.171875 37.8125 47.578125 
Q 36.03125 48 33.890625 48 
Q 26.265625 48 22.1875 43.046875 
Q 18.109375 38.09375 18.109375 28.8125 
L 18.109375 0 
L 9.078125 0 
L 9.078125 54.6875 
L 18.109375 54.6875 
L 18.109375 46.1875 
Q 20.953125 51.171875 25.484375 53.578125 
Q 30.03125 56 36.53125 56 
Q 37.453125 56 38.578125 55.875 
Q 39.703125 55.765625 41.0625 55.515625 
z
" id="DejaVuSans-114"/>
       <path d="M 45.40625 46.390625 
L 45.40625 75.984375 
L 54.390625 75.984375 
L 54.390625 0 
L 45.40625 0 
L 45.40625 8.203125 
Q 42.578125 3.328125 38.25 0.953125 
Q 33.9375 -1.421875 27.875 -1.421875 
Q 17.96875 -1.421875 11.734375 6.484375 
Q 5.515625 14.40625 5.515625 27.296875 
Q 5.515625 40.1875 11.734375 48.09375 
Q 17.96875 56 27.875 56 
Q 33.9375 56 38.25 53.625 
Q 42.578125 51.265625 45.40625 46.390625 
z
M 14.796875 27.296875 
Q 14.796875 17.390625 18.875 11.75 
Q 22.953125 6.109375 30.078125 6.109375 
Q 37.203125 6.109375 41.296875 11.75 
Q 45.40625 17.390625 45.40625 27.296875 
Q 45.40625 37.203125 41.296875 42.84375 
Q 37.203125 48.484375 30.078125 48.484375 
Q 22.953125 48.484375 18.875 42.84375 
Q 14.796875 37.203125 14.796875 27.296875 
z
" id="DejaVuSans-100"/>
       <path d="M 45.40625 27.984375 
Q 45.40625 37.75 41.375 43.109375 
Q 37.359375 48.484375 30.078125 48.484375 
Q 22.859375 48.484375 18.828125 43.109375 
Q 14.796875 37.75 14.796875 27.984375 
Q 14.796875 18.265625 18.828125 12.890625 
Q 22.859375 7.515625 30.078125 7.515625 
Q 37.359375 7.515625 41.375 12.890625 
Q 45.40625 18.265625 45.40625 27.984375 
z
M 54.390625 6.78125 
Q 54.390625 -7.171875 48.1875 -13.984375 
Q 42 -20.796875 29.203125 -20.796875 
Q 24.46875 -20.796875 20.265625 -20.09375 
Q 16.0625 -19.390625 12.109375 -17.921875 
L 12.109375 -9.1875 
Q 16.0625 -11.328125 19.921875 -12.34375 
Q 23.78125 -13.375 27.78125 -13.375 
Q 36.625 -13.375 41.015625 -8.765625 
Q 45.40625 -4.15625 45.40625 5.171875 
L 45.40625 9.625 
Q 42.625 4.78125 38.28125 2.390625 
Q 33.9375 0 27.875 0 
Q 17.828125 0 11.671875 7.65625 
Q 5.515625 15.328125 5.515625 27.984375 
Q 5.515625 40.671875 11.671875 48.328125 
Q 17.828125 56 27.875 56 
Q 33.9375 56 38.28125 53.609375 
Q 42.625 51.21875 45.40625 46.390625 
L 45.40625 54.6875 
L 54.390625 54.6875 
z
" id="DejaVuSans-103"/>
       <path d="M 52 44.1875 
Q 55.375 50.25 60.0625 53.125 
Q 64.75 56 71.09375 56 
Q 79.640625 56 84.28125 50.015625 
Q 88.921875 44.046875 88.921875 33.015625 
L 88.921875 0 
L 79.890625 0 
L 79.890625 32.71875 
Q 79.890625 40.578125 77.09375 44.375 
Q 74.3125 48.1875 68.609375 48.1875 
Q 61.625 48.1875 57.5625 43.546875 
Q 53.515625 38.921875 53.515625 30.90625 
L 53.515625 0 
L 44.484375 0 
L 44.484375 32.71875 
Q 44.484375 40.625 41.703125 44.40625 
Q 38.921875 48.1875 33.109375 48.1875 
Q 26.21875 48.1875 22.15625 43.53125 
Q 18.109375 38.875 18.109375 30.90625 
L 18.109375 0 
L 9.078125 0 
L 9.078125 54.6875 
L 18.109375 54.6875 
L 18.109375 46.1875 
Q 21.1875 51.21875 25.484375 53.609375 
Q 29.78125 56 35.6875 56 
Q 41.65625 56 45.828125 52.96875 
Q 50 49.953125 52 44.1875 
z
" id="DejaVuSans-109"/>
       <path d="M 18.109375 8.203125 
L 18.109375 -20.796875 
L 9.078125 -20.796875 
L 9.078125 54.6875 
L 18.109375 54.6875 
L 18.109375 46.390625 
Q 20.953125 51.265625 25.265625 53.625 
Q 29.59375 56 35.59375 56 
Q 45.5625 56 51.78125 48.09375 
Q 58.015625 40.1875 58.015625 27.296875 
Q 58.015625 14.40625 51.78125 6.484375 
Q 45.5625 -1.421875 35.59375 -1.421875 
Q 29.59375 -1.421875 25.265625 0.953125 
Q 20.953125 3.328125 18.109375 8.203125 
z
M 48.6875 27.296875 
Q 48.6875 37.203125 44.609375 42.84375 
Q 40.53125 48.484375 33.40625 48.484375 
Q 26.265625 48.484375 22.1875 42.84375 
Q 18.109375 37.203125 18.109375 27.296875 
Q 18.109375 17.390625 22.1875 11.75 
Q 26.265625 6.109375 33.40625 6.109375 
Q 40.53125 6.109375 44.609375 11.75 
Q 48.6875 17.390625 48.6875 27.296875 
z
" id="DejaVuSans-112"/>
       <path d="M 9.421875 75.984375 
L 18.40625 75.984375 
L 18.40625 0 
L 9.421875 0 
z
" id="DejaVuSans-108"/>
      </defs>
      <use xlink:href="#DejaVuSans-68"/>
      <use x="77.001953" xlink:href="#DejaVuSans-105"/>
      <use x="104.785156" xlink:href="#DejaVuSans-115"/>
      <use x="156.884766" xlink:href="#DejaVuSans-116"/>
      <use x="196.09375" xlink:href="#DejaVuSans-97"/>
      <use x="257.373047" xlink:href="#DejaVuSans-110"/>
      <use x="320.751953" xlink:href="#DejaVuSans-99"/>
      <use x="375.732422" xlink:href="#DejaVuSans-101"/>
      <use x="437.255859" xlink:href="#DejaVuSans-32"/>
      <use x="469.042969" xlink:href="#DejaVuSans-111"/>
      <use x="530.224609" xlink:href="#DejaVuSans-102"/>
      <use x="565.429688" xlink:href="#DejaVuSans-32"/>
      <use x="597.216797" xlink:href="#DejaVuSans-97"/>
      <use x="658.496094" xlink:href="#DejaVuSans-110"/>
      <use x="721.875" xlink:href="#DejaVuSans-99"/>
      <use x="776.855469" xlink:href="#DejaVuSans-104"/>
      <use x="840.234375" xlink:href="#DejaVuSans-111"/>
      <use x="901.416016" xlink:href="#DejaVuSans-114"/>
      <use x="942.529297" xlink:href="#DejaVuSans-32"/>
      <use x="974.316406" xlink:href="#DejaVuSans-97"/>
      <use x="1035.595703" xlink:href="#DejaVuSans-110"/>
      <use x="1098.974609" xlink:href="#DejaVuSans-100"/>
      <use x="1162.451172" xlink:href="#DejaVuSans-32"/>
      <use x="1194.238281" xlink:href="#DejaVuSans-103"/>
      <use x="1257.714844" xlink:href="#DejaVuSans-101"/>
      <use x="1319.238281" xlink:href="#DejaVuSans-110"/>
      <use x="1382.617188" xlink:href="#DejaVuSans-101"/>
      <use x="1444.140625" xlink:href="#DejaVuSans-114"/>
      <use x="1485.253906" xlink:href="#DejaVuSans-97"/>
      <use x="1546.533203" xlink:href="#DejaVuSans-116"/>
      <use x="1585.742188" xlink:href="#DejaVuSans-101"/>
      <use x="1647.265625" xlink:href="#DejaVuSans-100"/>
      <use x="1710.742188" xlink:href="#DejaVuSans-32"/>
      <use x="1742.529297" xlink:href="#DejaVuSans-115"/>
      <use x="1794.628906" xlink:href="#DejaVuSans-97"/>
      <use x="1855.908203" xlink:href="#DejaVuSans-109"/>
      <use x="1953.320312" xlink:href="#DejaVuSans-112"/>
      <use x="2016.796875" xlink:href="#DejaVuSans-108"/>
      <use x="2044.580078" xlink:href="#DejaVuSans-101"/>
     </g>
    </g>
   </g>
   <g id="matplotlib.axis_2">
    <g id="ytick_1"/>
    <g id="ytick_2"/>
    <g id="ytick_3"/>
    <g id="ytick_4"/>
    <g id="ytick_5"/>
    <g id="ytick_6"/>
    <g id="text_2">
     <!-- Loss -->
     <g transform="translate(51.520313 185.495187)rotate(-90)scale(0.1 -0.1)">
      <defs>
       <path d="M 9.8125 72.90625 
L 19.671875 72.90625 
L 19.671875 8.296875 
L 55.171875 8.296875 
L 55.171875 0 
L 9.8125 0 
z
" id="DejaVuSans-76"/>
      </defs>
      <use xlink:href="#DejaVuSans-76"/>
      <use x="53.962891" xlink:href="#DejaVuSans-111"/>
      <use x="115.144531" xlink:href="#DejaVuSans-115"/>
      <use x="167.244141" xlink:href="#DejaVuSans-115"/>
     </g>
    </g>
   </g>
   <g id="line2d_1">
    <path clip-path="url(#p8107e25a19)" d="M 73.832727 53.568 
L 77.112066 60.788948 
L 80.391405 67.794362 
L 83.670744 74.590675 
L 86.950083 81.184128 
L 90.229421 87.580776 
L 93.50876 93.786494 
L 96.788099 99.806981 
L 100.067438 105.647765 
L 103.346777 111.31421 
L 106.626116 116.811521 
L 109.905455 122.144745 
L 113.184793 127.318781 
L 116.464132 132.338379 
L 119.743471 137.20815 
L 123.02281 141.932566 
L 126.302149 146.515964 
L 129.581488 150.962556 
L 132.860826 155.276423 
L 136.140165 159.461528 
L 139.419504 163.521713 
L 142.698843 167.460708 
L 145.978182 171.282131 
L 149.257521 174.989489 
L 152.53686 178.586188 
L 155.816198 182.075532 
L 159.095537 185.460723 
L 162.374876 188.744872 
L 165.654215 191.930994 
L 168.933554 195.022015 
L 172.212893 198.020773 
L 175.492231 200.930024 
L 178.77157 203.752437 
L 182.050909 206.490606 
L 185.330248 209.147044 
L 188.609587 211.724192 
L 191.888926 214.224415 
L 195.168264 216.650011 
L 198.447603 219.003207 
L 201.726942 221.286163 
L 205.006281 223.500976 
L 208.28562 225.64968 
L 211.564959 227.734249 
L 214.844298 229.756597 
L 218.123636 231.71858 
L 221.402975 233.622002 
L 224.682314 235.468609 
L 227.961653 237.260097 
L 231.240992 238.998113 
L 234.520331 240.684251 
L 237.799669 242.32006 
L 241.079008 243.907043 
L 244.358347 245.446657 
L 247.637686 246.940316 
L 250.917025 248.389392 
L 254.196364 249.795214 
L 257.475702 251.159075 
L 260.755041 252.482227 
L 264.03438 253.765885 
L 267.313719 255.011227 
L 270.593058 256.219398 
L 273.872397 257.391506 
L 277.151736 258.52863 
L 280.431074 259.631811 
L 283.710413 260.702064 
L 286.989752 261.740372 
L 290.269091 262.747688 
L 293.54843 263.724937 
L 296.827769 264.673017 
L 300.107107 265.592798 
L 303.386446 266.485125 
L 306.665785 267.350817 
L 309.945124 268.19067 
L 313.224463 269.005454 
L 316.503802 269.795918 
L 319.78314 270.562788 
L 323.062479 271.306768 
L 326.341818 272.028542 
L 329.621157 272.728771 
L 332.900496 273.4081 
L 336.179835 274.067152 
L 339.459174 274.706532 
L 342.738512 275.326827 
L 346.017851 275.928608 
L 349.29719 276.512426 
L 352.576529 277.078819 
L 355.855868 277.628305 
L 359.135207 278.16139 
L 362.414545 278.678563 
L 365.693884 279.1803 
L 368.973223 279.66706 
L 372.252562 280.139291 
L 375.531901 280.597427 
L 378.81124 281.041889 
L 382.090579 281.473083 
L 385.369917 281.891407 
L 388.649256 282.297245 
L 391.928595 282.690969 
L 395.207934 283.072942 
L 398.487273 283.443512 
" style="fill:none;stroke:#ffa500;stroke-linecap:square;stroke-width:1.5;"/>
   </g>
   <g id="line2d_2">
    <path clip-path="url(#p8107e25a19)" d="M 73.832727 295.488 
L 77.112066 288.267052 
L 80.391405 281.261638 
L 83.670744 274.465325 
L 86.950083 267.871872 
L 90.229421 261.475224 
L 93.50876 255.269506 
L 96.788099 249.249019 
L 100.067438 243.408235 
L 103.346777 237.74179 
L 106.626116 232.244479 
L 109.905455 226.911255 
L 113.184793 221.737219 
L 116.464132 216.717621 
L 119.743471 211.84785 
L 123.02281 207.123434 
L 126.302149 202.540036 
L 129.581488 198.093444 
L 132.860826 193.779577 
L 136.140165 189.594472 
L 139.419504 185.534287 
L 142.698843 181.595292 
L 145.978182 177.773869 
L 149.257521 174.066511 
L 152.53686 170.469812 
L 155.816198 166.980468 
L 159.095537 163.595277 
L 162.374876 160.311128 
L 165.654215 157.125006 
L 168.933554 154.033985 
L 172.212893 151.035227 
L 175.492231 148.125976 
L 178.77157 145.303563 
L 182.050909 142.565394 
L 185.330248 139.908956 
L 188.609587 137.331808 
L 191.888926 134.831585 
L 195.168264 132.405989 
L 198.447603 130.052793 
L 201.726942 127.769837 
L 205.006281 125.555024 
L 208.28562 123.40632 
L 211.564959 121.321751 
L 214.844298 119.299403 
L 218.123636 117.33742 
L 221.402975 115.433998 
L 224.682314 113.587391 
L 227.961653 111.795903 
L 231.240992 110.057887 
L 234.520331 108.371749 
L 237.799669 106.73594 
L 241.079008 105.148957 
L 244.358347 103.609343 
L 247.637686 102.115684 
L 250.917025 100.666608 
L 254.196364 99.260786 
L 257.475702 97.896925 
L 260.755041 96.573773 
L 264.03438 95.290115 
L 267.313719 94.044773 
L 270.593058 92.836602 
L 273.872397 91.664494 
L 277.151736 90.52737 
L 280.431074 89.424189 
L 283.710413 88.353936 
L 286.989752 87.315628 
L 290.269091 86.308312 
L 293.54843 85.331063 
L 296.827769 84.382983 
L 300.107107 83.463202 
L 303.386446 82.570875 
L 306.665785 81.705183 
L 309.945124 80.86533 
L 313.224463 80.050546 
L 316.503802 79.260082 
L 319.78314 78.493212 
L 323.062479 77.749232 
L 326.341818 77.027458 
L 329.621157 76.327229 
L 332.900496 75.6479 
L 336.179835 74.988848 
L 339.459174 74.349468 
L 342.738512 73.729173 
L 346.017851 73.127392 
L 349.29719 72.543574 
L 352.576529 71.977181 
L 355.855868 71.427695 
L 359.135207 70.89461 
L 362.414545 70.377437 
L 365.693884 69.8757 
L 368.973223 69.38894 
L 372.252562 68.916709 
L 375.531901 68.458573 
L 378.81124 68.014111 
L 382.090579 67.582917 
L 385.369917 67.164593 
L 388.649256 66.758755 
L 391.928595 66.365031 
L 395.207934 65.983058 
L 398.487273 65.612488 
" style="fill:none;stroke:#008000;stroke-linecap:square;stroke-width:1.5;"/>
   </g>
   <g id="patch_3">
    <path d="M 57.6 307.584 
L 57.6 41.472 
" style="fill:none;stroke:#000000;stroke-linecap:square;stroke-linejoin:miter;stroke-width:0.8;"/>
   </g>
   <g id="patch_4">
    <path d="M 414.72 307.584 
L 414.72 41.472 
" style="fill:none;stroke:#000000;stroke-linecap:square;stroke-linejoin:miter;stroke-width:0.8;"/>
   </g>
   <g id="patch_5">
    <path d="M 57.6 307.584 
L 414.72 307.584 
" style="fill:none;stroke:#000000;stroke-linecap:square;stroke-linejoin:miter;stroke-width:0.8;"/>
   </g>
   <g id="patch_6">
    <path d="M 57.6 41.472 
L 414.72 41.472 
" style="fill:none;stroke:#000000;stroke-linecap:square;stroke-linejoin:miter;stroke-width:0.8;"/>
   </g>
   <g id="legend_1">
    <g id="patch_7">
     <path d="M 286.22 220.806125 
L 407.72 220.806125 
Q 409.72 220.806125 409.72 218.806125 
L 409.72 130.249875 
Q 409.72 128.249875 407.72 128.249875 
L 286.22 128.249875 
Q 284.22 128.249875 284.22 130.249875 
L 284.22 218.806125 
Q 284.22 220.806125 286.22 220.806125 
z
" style="fill:#ffffff;opacity:0.8;stroke:#cccccc;stroke-linejoin:miter;"/>
    </g>
    <g id="line2d_3">
     <path d="M 288.22 136.348312 
L 308.22 136.348312 
" style="fill:none;stroke:#ffa500;stroke-linecap:square;stroke-width:1.5;"/>
    </g>
    <g id="line2d_4"/>
    <g id="text_3">
     <!-- Negative -->
     <g transform="translate(316.22 139.848312)scale(0.1 -0.1)">
      <defs>
       <path d="M 9.8125 72.90625 
L 23.09375 72.90625 
L 55.421875 11.921875 
L 55.421875 72.90625 
L 64.984375 72.90625 
L 64.984375 0 
L 51.703125 0 
L 19.390625 60.984375 
L 19.390625 0 
L 9.8125 0 
z
" id="DejaVuSans-78"/>
       <path d="M 2.984375 54.6875 
L 12.5 54.6875 
L 29.59375 8.796875 
L 46.6875 54.6875 
L 56.203125 54.6875 
L 35.6875 0 
L 23.484375 0 
z
" id="DejaVuSans-118"/>
      </defs>
      <use xlink:href="#DejaVuSans-78"/>
      <use x="74.804688" xlink:href="#DejaVuSans-101"/>
      <use x="136.328125" xlink:href="#DejaVuSans-103"/>
      <use x="199.804688" xlink:href="#DejaVuSans-97"/>
      <use x="261.083984" xlink:href="#DejaVuSans-116"/>
      <use x="300.292969" xlink:href="#DejaVuSans-105"/>
      <use x="328.076172" xlink:href="#DejaVuSans-118"/>
      <use x="387.255859" xlink:href="#DejaVuSans-101"/>
     </g>
    </g>
    <g id="line2d_5">
     <path d="M 288.22 151.026437 
L 308.22 151.026437 
" style="fill:none;stroke:#008000;stroke-linecap:square;stroke-width:1.5;"/>
    </g>
    <g id="line2d_6"/>
    <g id="text_4">
     <!-- Positive -->
     <g transform="translate(316.22 154.526437)scale(0.1 -0.1)">
      <defs>
       <path d="M 19.671875 64.796875 
L 19.671875 37.40625 
L 32.078125 37.40625 
Q 38.96875 37.40625 42.71875 40.96875 
Q 46.484375 44.53125 46.484375 51.125 
Q 46.484375 57.671875 42.71875 61.234375 
Q 38.96875 64.796875 32.078125 64.796875 
z
M 9.8125 72.90625 
L 32.078125 72.90625 
Q 44.34375 72.90625 50.609375 67.359375 
Q 56.890625 61.8125 56.890625 51.125 
Q 56.890625 40.328125 50.609375 34.8125 
Q 44.34375 29.296875 32.078125 29.296875 
L 19.671875 29.296875 
L 19.671875 0 
L 9.8125 0 
z
" id="DejaVuSans-80"/>
      </defs>
      <use xlink:href="#DejaVuSans-80"/>
      <use x="56.677734" xlink:href="#DejaVuSans-111"/>
      <use x="117.859375" xlink:href="#DejaVuSans-115"/>
      <use x="169.958984" xlink:href="#DejaVuSans-105"/>
      <use x="197.742188" xlink:href="#DejaVuSans-116"/>
      <use x="236.951172" xlink:href="#DejaVuSans-105"/>
      <use x="264.734375" xlink:href="#DejaVuSans-118"/>
      <use x="323.914062" xlink:href="#DejaVuSans-101"/>
     </g>
    </g>
    <g id="PathCollection_5">
     <g>
      <use style="fill:#ff0000;stroke:#ff0000;" x="298.22" xlink:href="#m717bc7d6ce" y="166.581125"/>
     </g>
    </g>
    <g id="text_5">
     <!-- Hard negative $x^-$ -->
     <g transform="translate(316.22 169.206125)scale(0.1 -0.1)">
      <defs>
       <path d="M 9.8125 72.90625 
L 19.671875 72.90625 
L 19.671875 43.015625 
L 55.515625 43.015625 
L 55.515625 72.90625 
L 65.375 72.90625 
L 65.375 0 
L 55.515625 0 
L 55.515625 34.71875 
L 19.671875 34.71875 
L 19.671875 0 
L 9.8125 0 
z
" id="DejaVuSans-72"/>
       <path d="M 60.015625 54.6875 
L 34.90625 27.875 
L 50.296875 0 
L 39.984375 0 
L 28.421875 21.6875 
L 8.296875 0 
L -2.59375 0 
L 24.3125 28.8125 
L 10.015625 54.6875 
L 20.3125 54.6875 
L 30.8125 34.90625 
L 49.125 54.6875 
z
" id="DejaVuSans-Oblique-120"/>
       <path d="M 10.59375 35.5 
L 73.1875 35.5 
L 73.1875 27.203125 
L 10.59375 27.203125 
z
" id="DejaVuSans-8722"/>
      </defs>
      <use transform="translate(0 0.015625)" xlink:href="#DejaVuSans-72"/>
      <use transform="translate(75.195312 0.015625)" xlink:href="#DejaVuSans-97"/>
      <use transform="translate(136.474609 0.015625)" xlink:href="#DejaVuSans-114"/>
      <use transform="translate(177.587891 0.015625)" xlink:href="#DejaVuSans-100"/>
      <use transform="translate(241.064453 0.015625)" xlink:href="#DejaVuSans-32"/>
      <use transform="translate(272.851562 0.015625)" xlink:href="#DejaVuSans-110"/>
      <use transform="translate(336.230469 0.015625)" xlink:href="#DejaVuSans-101"/>
      <use transform="translate(397.753906 0.015625)" xlink:href="#DejaVuSans-103"/>
      <use transform="translate(461.230469 0.015625)" xlink:href="#DejaVuSans-97"/>
      <use transform="translate(522.509766 0.015625)" xlink:href="#DejaVuSans-116"/>
      <use transform="translate(561.71875 0.015625)" xlink:href="#DejaVuSans-105"/>
      <use transform="translate(589.501953 0.015625)" xlink:href="#DejaVuSans-118"/>
      <use transform="translate(648.681641 0.015625)" xlink:href="#DejaVuSans-101"/>
      <use transform="translate(710.205078 0.015625)" xlink:href="#DejaVuSans-32"/>
      <use transform="translate(741.992188 0.015625)" xlink:href="#DejaVuSans-Oblique-120"/>
      <use transform="translate(819.275716 38.296875)scale(0.7)" xlink:href="#DejaVuSans-8722"/>
     </g>
    </g>
    <g id="PathCollection_6">
     <g>
      <use style="fill:#00ffff;stroke:#00ffff;" x="298.22" xlink:href="#mb1ce1a0b05" y="181.981125"/>
     </g>
    </g>
    <g id="text_6">
     <!-- Easy positive $x^+$ -->
     <g transform="translate(316.22 184.606125)scale(0.1 -0.1)">
      <defs>
       <path d="M 9.8125 72.90625 
L 55.90625 72.90625 
L 55.90625 64.59375 
L 19.671875 64.59375 
L 19.671875 43.015625 
L 54.390625 43.015625 
L 54.390625 34.71875 
L 19.671875 34.71875 
L 19.671875 8.296875 
L 56.78125 8.296875 
L 56.78125 0 
L 9.8125 0 
z
" id="DejaVuSans-69"/>
       <path d="M 32.171875 -5.078125 
Q 28.375 -14.84375 24.75 -17.8125 
Q 21.140625 -20.796875 15.09375 -20.796875 
L 7.90625 -20.796875 
L 7.90625 -13.28125 
L 13.1875 -13.28125 
Q 16.890625 -13.28125 18.9375 -11.515625 
Q 21 -9.765625 23.484375 -3.21875 
L 25.09375 0.875 
L 2.984375 54.6875 
L 12.5 54.6875 
L 29.59375 11.921875 
L 46.6875 54.6875 
L 56.203125 54.6875 
z
" id="DejaVuSans-121"/>
       <path d="M 46 62.703125 
L 46 35.5 
L 73.1875 35.5 
L 73.1875 27.203125 
L 46 27.203125 
L 46 0 
L 37.796875 0 
L 37.796875 27.203125 
L 10.59375 27.203125 
L 10.59375 35.5 
L 37.796875 35.5 
L 37.796875 62.703125 
z
" id="DejaVuSans-43"/>
      </defs>
      <use transform="translate(0 0.826562)" xlink:href="#DejaVuSans-69"/>
      <use transform="translate(63.183594 0.826562)" xlink:href="#DejaVuSans-97"/>
      <use transform="translate(124.462891 0.826562)" xlink:href="#DejaVuSans-115"/>
      <use transform="translate(176.5625 0.826562)" xlink:href="#DejaVuSans-121"/>
      <use transform="translate(235.742188 0.826562)" xlink:href="#DejaVuSans-32"/>
      <use transform="translate(267.529297 0.826562)" xlink:href="#DejaVuSans-112"/>
      <use transform="translate(331.005859 0.826562)" xlink:href="#DejaVuSans-111"/>
      <use transform="translate(392.1875 0.826562)" xlink:href="#DejaVuSans-115"/>
      <use transform="translate(444.287109 0.826562)" xlink:href="#DejaVuSans-105"/>
      <use transform="translate(472.070312 0.826562)" xlink:href="#DejaVuSans-116"/>
      <use transform="translate(511.279297 0.826562)" xlink:href="#DejaVuSans-105"/>
      <use transform="translate(539.0625 0.826562)" xlink:href="#DejaVuSans-118"/>
      <use transform="translate(598.242188 0.826562)" xlink:href="#DejaVuSans-101"/>
      <use transform="translate(659.765625 0.826562)" xlink:href="#DejaVuSans-32"/>
      <use transform="translate(691.552734 0.826562)" xlink:href="#DejaVuSans-Oblique-120"/>
      <use transform="translate(768.836263 39.107812)scale(0.7)" xlink:href="#DejaVuSans-43"/>
     </g>
    </g>
    <g id="PathCollection_7">
     <g>
      <use style="fill:#ffc0cb;stroke:#ffc0cb;" x="298.22" xlink:href="#m741b2c45fb" y="196.681125"/>
     </g>
    </g>
    <g id="text_7">
     <!-- Easy negative $x^-$ -->
     <g transform="translate(316.22 199.306125)scale(0.1 -0.1)">
      <use transform="translate(0 0.015625)" xlink:href="#DejaVuSans-69"/>
      <use transform="translate(63.183594 0.015625)" xlink:href="#DejaVuSans-97"/>
      <use transform="translate(124.462891 0.015625)" xlink:href="#DejaVuSans-115"/>
      <use transform="translate(176.5625 0.015625)" xlink:href="#DejaVuSans-121"/>
      <use transform="translate(235.742188 0.015625)" xlink:href="#DejaVuSans-32"/>
      <use transform="translate(267.529297 0.015625)" xlink:href="#DejaVuSans-110"/>
      <use transform="translate(330.908203 0.015625)" xlink:href="#DejaVuSans-101"/>
      <use transform="translate(392.431641 0.015625)" xlink:href="#DejaVuSans-103"/>
      <use transform="translate(455.908203 0.015625)" xlink:href="#DejaVuSans-97"/>
      <use transform="translate(517.1875 0.015625)" xlink:href="#DejaVuSans-116"/>
      <use transform="translate(556.396484 0.015625)" xlink:href="#DejaVuSans-105"/>
      <use transform="translate(584.179688 0.015625)" xlink:href="#DejaVuSans-118"/>
      <use transform="translate(643.359375 0.015625)" xlink:href="#DejaVuSans-101"/>
      <use transform="translate(704.882812 0.015625)" xlink:href="#DejaVuSans-32"/>
      <use transform="translate(736.669922 0.015625)" xlink:href="#DejaVuSans-Oblique-120"/>
      <use transform="translate(813.953451 38.296875)scale(0.7)" xlink:href="#DejaVuSans-8722"/>
     </g>
    </g>
    <g id="PathCollection_8">
     <g>
      <use style="fill:#ee82ee;stroke:#ee82ee;" x="298.22" xlink:href="#m12bc841a9d" y="212.081125"/>
     </g>
    </g>
    <g id="text_8">
     <!-- Hard positive $x^+$ -->
     <g transform="translate(316.22 214.706125)scale(0.1 -0.1)">
      <use transform="translate(0 0.826562)" xlink:href="#DejaVuSans-72"/>
      <use transform="translate(75.195312 0.826562)" xlink:href="#DejaVuSans-97"/>
      <use transform="translate(136.474609 0.826562)" xlink:href="#DejaVuSans-114"/>
      <use transform="translate(177.587891 0.826562)" xlink:href="#DejaVuSans-100"/>
      <use transform="translate(241.064453 0.826562)" xlink:href="#DejaVuSans-32"/>
      <use transform="translate(272.851562 0.826562)" xlink:href="#DejaVuSans-112"/>
      <use transform="translate(336.328125 0.826562)" xlink:href="#DejaVuSans-111"/>
      <use transform="translate(397.509766 0.826562)" xlink:href="#DejaVuSans-115"/>
      <use transform="translate(449.609375 0.826562)" xlink:href="#DejaVuSans-105"/>
      <use transform="translate(477.392578 0.826562)" xlink:href="#DejaVuSans-116"/>
      <use transform="translate(516.601562 0.826562)" xlink:href="#DejaVuSans-105"/>
      <use transform="translate(544.384766 0.826562)" xlink:href="#DejaVuSans-118"/>
      <use transform="translate(603.564453 0.826562)" xlink:href="#DejaVuSans-101"/>
      <use transform="translate(665.087891 0.826562)" xlink:href="#DejaVuSans-32"/>
      <use transform="translate(696.875 0.826562)" xlink:href="#DejaVuSans-Oblique-120"/>
      <use transform="translate(774.158529 39.107812)scale(0.7)" xlink:href="#DejaVuSans-43"/>
     </g>
    </g>
   </g>
  </g>
 </g>
 <defs>
  <clipPath id="p8107e25a19">
   <rect height="266.112" width="357.12" x="57.6" y="41.472"/>
  </clipPath>
 </defs>
</svg>
